<?xml version="1.0" encoding="UTF-8" standalone="no"?>
<!-- Created with Inkscape (http://www.inkscape.org/) -->

<svg
   xmlns:dc="http://purl.org/dc/elements/1.1/"
   xmlns:cc="http://creativecommons.org/ns#"
   xmlns:rdf="http://www.w3.org/1999/02/22-rdf-syntax-ns#"
   xmlns:svg="http://www.w3.org/2000/svg"
   xmlns="http://www.w3.org/2000/svg"
   xmlns:sodipodi="http://sodipodi.sourceforge.net/DTD/sodipodi-0.dtd"
   xmlns:inkscape="http://www.inkscape.org/namespaces/inkscape"
   width="333.1293mm"
   height="105.47173mm"
   viewBox="0 0 333.1293 105.47173"
   version="1.1"
   id="svg1905"
   inkscape:version="0.92.2 (5c3e80d, 2017-08-06)"
   sodipodi:docname="mwts2018.svg">
  <defs
     id="defs1899">
    <clipPath
       clipPathUnits="userSpaceOnUse"
       id="clipPath26">
      <path
         d="M 0,2000 H 2000 V 0 H 0 Z"
         id="path24"
         inkscape:connector-curvature="0" />
    </clipPath>
  </defs>
  <sodipodi:namedview
     id="base"
     pagecolor="#ffffff"
     bordercolor="#666666"
     borderopacity="1.0"
     inkscape:pageopacity="0.0"
     inkscape:pageshadow="2"
     inkscape:zoom="0.35"
     inkscape:cx="-504.75001"
     inkscape:cy="-107.12533"
     inkscape:document-units="mm"
     inkscape:current-layer="g1866"
     showgrid="false"
     inkscape:window-width="1853"
     inkscape:window-height="1025"
     inkscape:window-x="67"
     inkscape:window-y="27"
     inkscape:window-maximized="1" />
  <metadata
     id="metadata1902">
    <rdf:RDF>
      <cc:Work
         rdf:about="">
        <dc:format>image/svg+xml</dc:format>
        <dc:type
           rdf:resource="http://purl.org/dc/dcmitype/StillImage" />
        <dc:title />
      </cc:Work>
    </rdf:RDF>
  </metadata>
  <g
     inkscape:label="Layer 1"
     inkscape:groupmode="layer"
     id="layer1"
     transform="translate(-0.50082199,-15.018031)">
    <g
       transform="matrix(0.35277777,0,0,-0.35277777,-110.70983,613.89248)"
       id="g1866">
      <g
         id="g855">
        <g
           id="g1131"
           transform="matrix(1.2082737,0,0,1.2082737,-176.597,-310.52287)">
          <text
             id="text14"
             style="font-variant:normal;font-weight:500;font-stretch:normal;font-size:190px;font-family:'Brie Light';-inkscape-font-specification:Brie-Light;writing-mode:lr-tb;fill:#1e1b18;fill-opacity:1;fill-rule:nonzero;stroke:none"
             transform="matrix(1,0,0,-1,668.3711,1513.9736)">
            <tspan
               id="tspan12"
               sodipodi:role="line"
               y="0"
               x="0 158.64999 338.39001 422.56">MWTS</tspan>
          </text>
          <text
             id="text18"
             style="font-variant:normal;font-weight:500;font-stretch:normal;font-size:100px;font-family:'Brie Light';-inkscape-font-specification:Brie-Light;writing-mode:lr-tb;fill:#004e98;fill-opacity:1;fill-rule:nonzero;stroke:none"
             transform="matrix(1,0,0,-1,668.3701,1427.3271)">
            <tspan
               id="tspan16"
               sodipodi:role="line"
               y="0"
               x="0 56 112 168">2018</tspan>
          </text>
        </g>
        <g
           id="g20">
          <g
             id="g22"
             clip-path="url(#clipPath26)">
            <g
               id="g28"
               transform="translate(614.2178,1548.1089)"
               style="fill:#004e98;fill-opacity:1">
              <path
                 d="m 0,0 c 0,-82.56 -66.928,-149.487 -149.487,-149.487 -82.56,0 -149.488,66.927 -149.488,149.487 0,82.56 66.928,149.488 149.488,149.488 C -66.928,149.488 0,82.56 0,0"
                 style="fill:#004e98;fill-opacity:1;fill-rule:nonzero;stroke:none"
                 id="path30"
                 inkscape:connector-curvature="0" />
            </g>
            <g
               id="g32"
               transform="translate(479.3071,1548.1089)">
              <path
                 d="m 0,0 c 0,-8.05 -6.526,-14.577 -14.577,-14.577 -8.05,0 -14.576,6.527 -14.576,14.577 0,8.051 6.526,14.577 14.576,14.577 C -6.526,14.577 0,8.051 0,0"
                 style="fill:#ffffff;fill-opacity:1;fill-rule:nonzero;stroke:none"
                 id="path34"
                 inkscape:connector-curvature="0" />
            </g>
            <g
               id="g36"
               transform="translate(415.4487,1548.1089)">
              <path
                 d="M 0,0 C 0,27.218 22.064,49.282 49.282,49.282 76.499,49.282 98.563,27.218 98.563,0"
                 style="fill:none;stroke:#ffffff;stroke-width:5;stroke-linecap:round;stroke-linejoin:miter;stroke-miterlimit:10;stroke-dasharray:none;stroke-opacity:1"
                 id="path38"
                 inkscape:connector-curvature="0" />
            </g>
            <g
               id="g40"
               transform="translate(390.5439,1505.2773)">
              <path
                 d="m 0,0 c -7.29,12.6 -11.462,27.228 -11.462,42.832 0,47.302 38.346,85.648 85.649,85.648 47.302,0 85.648,-38.346 85.648,-85.648 C 159.835,27.229 155.663,12.6 148.373,0"
                 style="fill:none;stroke:#ffffff;stroke-width:5;stroke-linecap:round;stroke-linejoin:miter;stroke-miterlimit:10;stroke-dasharray:none;stroke-opacity:1"
                 id="path42"
                 inkscape:connector-curvature="0" />
            </g>
            <g
               id="g44"
               transform="translate(405.105,1444.835)">
              <path
                 d="m 0,0 c -35.633,20.617 -59.605,59.146 -59.605,103.274 0,65.85 53.381,119.231 119.23,119.231 65.85,0 119.231,-53.381 119.231,-119.231 C 178.856,59.146 154.883,20.617 119.25,0"
                 style="fill:none;stroke:#ffffff;stroke-width:5;stroke-linecap:round;stroke-linejoin:miter;stroke-miterlimit:10;stroke-dasharray:none;stroke-opacity:1"
                 id="path46"
                 inkscape:connector-curvature="0" />
            </g>
          </g>
        </g>
        <text
           transform="matrix(1,0,0,-1,411.0908,1461.0161)"
           style="font-variant:normal;font-weight:500;font-stretch:normal;font-size:80px;font-family:'Brie Light';-inkscape-font-specification:Brie-Light;writing-mode:lr-tb;fill:#ebebeb;fill-opacity:1;fill-rule:nonzero;stroke:none"
           id="text52">
          <tspan
             x="0 44.799999"
             y="0"
             sodipodi:role="line"
             id="tspan48"
             style="fill:#ebebeb;fill-opacity:1">5G</tspan>
          <tspan
             x="120.88"
             y="659.20001"
             id="tspan50"
             style="fill:#ebebeb;fill-opacity:1" />
        </text>
      </g>
    </g>
  </g>
</svg>
